<svg xmlns="http://www.w3.org/2000/svg" xmlns:xlink="http://www.w3.org/1999/xlink" fill="none" version="1.1" width="18.7518253326416" height="15.755779266357422" viewBox="0 0 18.7518253326416 15.755779266357422"><g transform="matrix(0,-1,-1,0,34.50760459899902,34.50760459899902)"><path d="M34.1756253326416,27.42667926635742C34.1756253326416,27.42667926635742,27.425655332641604,34.176679266357425,27.425655332641604,34.176679266357425C27.321135332641603,34.281579266357426,27.1969453326416,34.364779266357424,27.0601953326416,34.421579266357426C26.923455332641602,34.47837926635742,26.7768453326416,34.507579266357425,26.628775332641602,34.507579266357425C26.4807153326416,34.507579266357425,26.334105332641602,34.47837926635742,26.1973553326416,34.421579266357426C26.0606053326416,34.364779266357424,25.9364153326416,34.281579266357426,25.8319053326416,34.176679266357425C25.8319053326416,34.176679266357425,19.0819023326416,27.42667926635742,19.0819023326416,27.42667926635742C18.870557332641603,27.215379266357424,18.75182532949232,26.92867926635742,18.7518253326416,26.62987926635742C18.751825335790883,26.330979266357424,18.870557332641603,26.04427926635742,19.0819023326416,25.83297926635742C19.2932463326416,25.62161926635742,19.5798903326416,25.50288926635742,19.878775332641602,25.50288926635742C20.177665332641602,25.50288926635742,20.4643053326416,25.62161926635742,20.6756553326416,25.83297926635742C20.6756553326416,25.83297926635742,25.504715332641602,30.66197926635742,25.504715332641602,30.66197926635742C25.504715332641602,30.66197926635742,25.504715332641602,16.880779266357422,25.504715332641602,16.880779266357422C25.504715332641602,16.58241026635742,25.623245332641602,16.296262266357424,25.8342153326416,16.085284266357423C26.0451953326416,15.874305266357421,26.3313453326416,15.755779266357422,26.629715332641602,15.755779266357422C26.9280853326416,15.755779266357422,27.2142353326416,15.874305266357421,27.425205332641603,16.085284266357423C27.636185332641602,16.296262266357424,27.754715332641602,16.58241026635742,27.754715332641602,16.880779266357422C27.754715332641602,16.880779266357422,27.754715332641602,30.66197926635742,27.754715332641602,30.66197926635742C27.754715332641602,30.66197926635742,32.5838253326416,25.83207926635742,32.5838253326416,25.83207926635742C32.795125332641604,25.620689266357424,33.081725332641604,25.50194926635742,33.3806253326416,25.50194926635742C33.6795253326416,25.50194926635742,33.9662253326416,25.620689266357424,34.1775253326416,25.83207926635742C34.3888253326416,26.04337926635742,34.5076253326416,26.32997926635742,34.5076253326416,26.628879266357423C34.5076253326416,26.927779266357422,34.3888253326416,27.214479266357422,34.1775253326416,27.425779266357424C34.1775253326416,27.425779266357424,34.1756253326416,27.42667926635742,34.1756253326416,27.42667926635742Z" fill="#000000" fill-opacity="1"/></g></svg>