<svg xmlns="http://www.w3.org/2000/svg" xmlns:xlink="http://www.w3.org/1999/xlink" fill="none" version="1.1" width="28.55927085876465" height="11.205357551574707" viewBox="0 0 28.55927085876465 11.205357551574707"><g><path d="M6.4731,2.55287C5.98546,2.08871,5.36786,1.85117,4.67818,1.85117C3.45773,1.85117,2.42234,2.67354,2.05156,3.78206C1.9571,4.06492,1.90522,4.3658,1.90522,4.67706C1.90522,4.98814,1.95704,5.28886,2.0514,5.57158L2.05161,5.57158C2.42239,6.6801,3.45773,7.50248,4.67818,7.50248C5.30971,7.50248,5.84958,7.33716,6.26888,7.05452L6.26888,7.0541C6.77508,6.71336,7.10545,6.20224,7.20812,5.60266L4.6771,5.60211L4.6771,3.80009L9.07183,3.80009C9.12862,4.11462,9.1592,4.44172,9.1592,4.78355C9.1592,6.20523,8.65539,7.40856,7.77601,8.22274L7.77548,8.22324C7.00284,8.93828,5.94149,9.35365,4.67818,9.35365C2.85009,9.35365,1.26768,8.30534,0.497671,6.77762L0.497464,6.77778C0.179655,6.14598,0,5.43282,0,4.67706C0,3.9213,0.179109,3.20814,0.497464,2.57634C1.26742,1.04844,2.8505,0,4.67818,0C5.94014,0,6.99732,0.463612,7.80823,1.21882L6.4731,2.55287ZM12.2811,8.75346L13.3296,8.75346L13.3296,5.44429L15.0606,5.44429C15.7705,5.44429,16.3712,5.21494,16.8572,4.75079C17.3595,4.28663,17.6107,3.71326,17.6107,3.01975C17.6107,2.34263,17.3595,1.76926,16.8572,1.29964C16.3657,0.830021,15.765,0.595211,15.0606,0.595211L12.2811,0.595211L12.2811,8.75346ZM13.3296,4.44499L13.3296,1.60544L15.0824,1.60544C15.5029,1.60544,15.8469,1.74741,16.12,2.03683C16.3985,2.31533,16.5404,2.64842,16.5404,3.02521C16.5404,3.40746,16.3985,3.74602,16.12,4.02452C15.8469,4.30301,15.4974,4.44499,15.0824,4.44499L13.3296,4.44499ZM20.3519,2.98699Q21.515,2.98699,22.1866,3.6095C22.6344,4.02452,22.8583,4.59243,22.8583,5.31324L22.8583,8.75346L21.859,8.75346L21.859,7.97804L21.8153,7.97804C21.3839,8.61694,20.8051,8.93366,20.0843,8.93366C19.4672,8.93366,18.9539,8.75346,18.5389,8.3876C18.1239,8.02173,17.9164,7.56849,17.9164,7.02243Q17.9164,6.15418,18.5717,5.64634C19.0085,5.30231,19.5928,5.13303,20.3191,5.13303C20.9416,5.13303,21.4549,5.24771,21.8535,5.47706L21.8535,5.23678C21.8535,4.87092,21.7116,4.56512,21.4221,4.30847C21.1327,4.05182,20.7942,3.92622,20.4065,3.92622C19.8222,3.92622,19.358,4.17195,19.0195,4.66888L18.0966,4.09004C18.6045,3.35285,19.358,2.98699,20.3519,2.98699ZM28.5593,3.16724L25.0645,11.2054L23.9832,11.2054L25.2829,8.39311L22.9785,3.16724L24.1198,3.16724L25.7798,7.17538L25.8016,7.17538L27.418,3.16724L28.5593,3.16724ZM18.9976,7.03881C18.9976,7.31184,19.1123,7.54119,19.3471,7.72139C19.5764,7.9016,19.8495,7.99443,20.1607,7.99443C20.6031,7.99443,20.9962,7.83061,21.3402,7.50297C21.6843,7.17532,21.859,6.79308,21.859,6.35076C21.5314,6.09411,21.0781,5.96306,20.4938,5.96306C20.0679,5.96306,19.713,6.06681,19.429,6.26885C19.1396,6.48182,18.9976,6.73847,18.9976,7.03881Z" fill-rule="evenodd" fill="#E94235" fill-opacity="1"/></g></svg>