<svg xmlns="http://www.w3.org/2000/svg" xmlns:xlink="http://www.w3.org/1999/xlink" fill="none" version="1.1" width="18.75" height="2.25" viewBox="0 0 18.75 2.25"><g><path d="M18.75,1.125C18.75,1.42337,18.6315,1.70952,18.4205,1.92049C18.2095,2.13147,17.9234,2.25,17.625,2.25C17.625,2.25,1.125,2.25,1.125,2.25C0.826631,2.25,0.540483,2.13147,0.329505,1.92049C0.118526,1.70952,0,1.42337,0,1.125C0,0.826631,0.118526,0.540483,0.329505,0.329505C0.540483,0.118526,0.826631,1.33227e-15,1.125,0C1.125,0,17.625,0,17.625,0C17.9234,1.33227e-15,18.2095,0.118526,18.4205,0.329505C18.6315,0.540483,18.75,0.826631,18.75,1.125Z" fill="#000000" fill-opacity="1"/></g></svg>