<svg xmlns="http://www.w3.org/2000/svg" xmlns:xlink="http://www.w3.org/1999/xlink" fill="none" version="1.1" width="20.25" height="15.75" viewBox="0 0 20.25 15.75"><g><path d="M19.125,6.66134e-16C19.125,6.66134e-16,1.125,6.66134e-16,1.125,6.66134e-16C0.826631,0,0.540483,0.118526,0.329505,0.329505C0.118526,0.540483,0,0.826631,0,1.125C0,1.125,0,13.875,0,13.875C0,14.3723,0.197544,14.8492,0.549175,15.2008C0.900805,15.5525,1.37772,15.75,1.875,15.75C1.875,15.75,18.375,15.75,18.375,15.75C18.8723,15.75,19.3492,15.5525,19.7008,15.2008C20.0525,14.8492,20.25,14.3723,20.25,13.875C20.25,13.875,20.25,1.125,20.25,1.125C20.25,0.826631,20.1315,0.540483,19.9205,0.329505C19.7095,0.118526,19.4234,6.66134e-16,19.125,6.66134e-16ZM10.125,7.84875C10.125,7.84875,4.01719,2.25,4.01719,2.25C4.01719,2.25,16.2328,2.25,16.2328,2.25C16.2328,2.25,10.125,7.84875,10.125,7.84875ZM6.82406,7.875C6.82406,7.875,2.25,12.0675,2.25,12.0675C2.25,12.0675,2.25,3.6825,2.25,3.6825C2.25,3.6825,6.82406,7.875,6.82406,7.875ZM8.48906,9.40125C8.48906,9.40125,9.36469,10.2047,9.36469,10.2047C9.57219,10.395,9.84348,10.5005,10.125,10.5005C10.4065,10.5005,10.6778,10.395,10.8853,10.2047C10.8853,10.2047,11.7609,9.40125,11.7609,9.40125C11.7609,9.40125,16.2328,13.5,16.2328,13.5C16.2328,13.5,4.01719,13.5,4.01719,13.5C4.01719,13.5,8.48906,9.40125,8.48906,9.40125ZM13.4259,7.875C13.4259,7.875,18,3.6825,18,3.6825C18,3.6825,18,12.0675,18,12.0675C18,12.0675,13.4259,7.875,13.4259,7.875Z" fill="#000000" fill-opacity="0.4000000059604645"/></g></svg>