<svg xmlns="http://www.w3.org/2000/svg" xmlns:xlink="http://www.w3.org/1999/xlink" fill="none" version="1.1" width="25.381532669067383" height="15.6875" viewBox="0 0 25.381532669067383 15.6875"><g><path d="M16.701,0.0447958C15.2377,0.201859,13.848,0.767477,12.691,1.677C11.5338,0.767478,10.1442,0.201863,8.68081,0.0447978C7.21744,-0.112267,5.7394,0.14555,4.41563,0.788793C3.09185,1.43204,1.97576,2.43475,1.19492,3.68232C0.414079,4.92988,0,6.37197,0,7.84375C0,9.31553,0.414079,10.7576,1.19492,12.0052C1.97576,13.2527,3.09185,14.2555,4.41563,14.8987C5.7394,15.542,7.21744,15.7998,8.68081,15.6427C10.1442,15.4856,11.5338,14.92,12.6909,14.0105L12.691,14.0105C13.8481,14.92,15.2377,15.4856,16.701,15.6427C18.1644,15.7998,19.6424,15.5419,20.9662,14.8987C22.2899,14.2554,23.406,13.2527,24.1868,12.0052C24.9676,10.7576,25.3816,9.31551,25.3815,7.84375C25.3816,6.37199,24.9676,4.92991,24.1868,3.68234C23.406,2.43477,22.2899,1.43206,20.9662,0.788811C19.6424,0.145561,18.1644,-0.112267,16.701,0.0447958ZM25.1366,12.3998L25.1366,12.7042L25.0805,12.7042L25.0805,12.474L24.9948,12.6725L24.9366,12.6725L24.8509,12.4745L24.8509,12.7042L24.7947,12.7042L24.7947,12.3998L24.8743,12.3998L24.9657,12.6092L25.0571,12.3998L25.1366,12.3998ZM24.6332,12.4517L24.6332,12.7042L24.5776,12.7042L24.5776,12.4517L24.4757,12.4517L24.4757,12.4002L24.735,12.4002L24.735,12.4517L24.6332,12.4517Z" fill-rule="evenodd" fill="#F79E1B" fill-opacity="1"/></g></svg>