<svg xmlns="http://www.w3.org/2000/svg" xmlns:xlink="http://www.w3.org/1999/xlink" fill="none" version="1.1" width="11.503852844238281" height="6.503767490386963" viewBox="0 0 11.503852844238281 6.503767490386963"><g><path d="M11.2826,1.28318C11.2826,1.28318,6.28255,6.28318,6.28255,6.28318C6.21287,6.3531,6.13008,6.40857,6.03892,6.44643C5.94775,6.48428,5.85001,6.50377,5.7513,6.50377C5.65259,6.50377,5.55485,6.48428,5.46369,6.44643C5.37252,6.40857,5.28973,6.3531,5.22005,6.28318C5.22005,6.28318,0.220051,1.28318,0.220051,1.28318C0.0791548,1.14228,-2.09952e-9,0.951183,0,0.751926C2.09952e-9,0.552669,0.0791548,0.361572,0.220051,0.220676C0.360947,0.0797797,0.552044,0.000625136,0.751301,0.000625133C0.950558,0.000625131,1.14165,0.0797797,1.28255,0.220676C1.28255,0.220676,5.75193,4.69005,5.75193,4.69005C5.75193,4.69005,10.2213,0.220051,10.2213,0.220051C10.3622,0.079155,10.5533,0,10.7526,0C10.9518,0,11.1429,0.079155,11.2838,0.220051C11.4247,0.360948,11.5039,0.552044,11.5039,0.751301C11.5039,0.950559,11.4247,1.14165,11.2838,1.28255C11.2838,1.28255,11.2826,1.28318,11.2826,1.28318Z" fill="#000000" fill-opacity="1"/></g></svg>