<svg xmlns="http://www.w3.org/2000/svg" xmlns:xlink="http://www.w3.org/1999/xlink" fill="none" version="1.1" width="13.548385620117188" height="13.548828125" viewBox="0 0 13.548385620117188 13.548828125"><g><g><path d="M6.77419,1.22064C8.5829,1.22064,8.7971,1.22742,9.51161,1.26C9.94122,1.26526,10.3667,1.34414,10.7697,1.49323C11.0619,1.60592,11.3273,1.77855,11.5487,2C11.7702,2.22145,11.9428,2.48683,12.0555,2.77903C12.2046,3.18197,12.2835,3.60749,12.2887,4.0371C12.321,4.75161,12.3281,4.96581,12.3281,6.77452C12.3281,8.58322,12.3213,8.79742,12.2887,9.51193C12.2835,9.94154,12.2046,10.3671,12.0555,10.77C11.9428,11.0622,11.7702,11.3276,11.5487,11.549C11.3273,11.7705,11.0619,11.9431,10.7697,12.0558C10.3667,12.2049,9.94122,12.2838,9.51161,12.289C8.79742,12.3213,8.58323,12.3284,6.77419,12.3284C4.96516,12.3284,4.75097,12.3216,4.03677,12.289C3.60717,12.2838,3.18165,12.2049,2.77871,12.0558C2.4865,11.9431,2.22113,11.7705,1.99968,11.549C1.77822,11.3276,1.60559,11.0622,1.4929,10.77C1.34382,10.3671,1.26493,9.94154,1.25968,9.51193C1.22742,8.79742,1.22032,8.58322,1.22032,6.77452C1.22032,4.96581,1.2271,4.75161,1.25968,4.0371C1.26493,3.60749,1.34382,3.18197,1.4929,2.77903C1.60559,2.48683,1.77822,2.22145,1.99968,2C2.22113,1.77855,2.4865,1.60592,2.77871,1.49323C3.18165,1.34414,3.60717,1.26526,4.03677,1.26C4.75129,1.22774,4.96548,1.22064,6.77419,1.22064C6.77419,1.22064,6.77419,1.22064,6.77419,1.22064ZM6.77419,0C4.93548,0,4.70387,0.00774191,3.98129,0.0406451C3.41905,0.0518283,2.86277,0.158284,2.33613,0.355484C1.88435,0.525699,1.47516,0.79244,1.1371,1.1371C0.792129,1.47528,0.525159,1.88471,0.354839,2.33677C0.157639,2.86342,0.0511832,3.41969,0.04,3.98194C0.00774196,4.70387,0,4.93548,0,6.77419C0,8.6129,0.00774191,8.84452,0.0406451,9.5671C0.0518283,10.1293,0.158284,10.6856,0.355484,11.2123C0.525616,11.6643,0.792362,12.0737,1.1371,12.4119C1.47535,12.7567,1.88477,13.0234,2.33677,13.1935C2.86342,13.3907,3.41969,13.4972,3.98194,13.5084C4.70452,13.5406,4.93516,13.549,6.77484,13.549C8.61452,13.549,8.84516,13.5413,9.56774,13.5084C10.13,13.4972,10.6863,13.3907,11.2129,13.1935C11.6628,13.0192,12.0713,12.7528,12.4123,12.4116C12.7534,12.0703,13.0195,11.6616,13.1935,11.2116C13.3907,10.685,13.4972,10.1287,13.5084,9.56645C13.5406,8.84451,13.5484,8.6129,13.5484,6.77419C13.5484,4.93548,13.5406,4.70387,13.5077,3.98129C13.4966,3.41905,13.3901,2.86277,13.1929,2.33613C13.0228,1.88412,12.756,1.4747,12.4113,1.13645C12.073,0.791716,11.6636,0.52497,11.2116,0.354839C10.685,0.157639,10.1287,0.0511832,9.56645,0.04C8.84452,0.00774196,8.6129,0,6.77419,0Z" fill="#000000" fill-opacity="1"/></g><g><path d="M6.7755849999999995,3.296875C6.087565,3.296875,5.414985,3.500898,4.842915,3.883143C4.270848,4.265389,3.824973,4.8086850000000005,3.561678,5.444345C3.29838242,6.079995,3.2294922,6.779445,3.3637189,7.454245C3.4979459999999998,8.129055000000001,3.829261,8.748895000000001,4.315765,9.235405C4.802275,9.721905,5.422124999999999,10.053225000000001,6.096925000000001,10.187455C6.771725,10.321674999999999,7.471175,10.252785,8.106835,9.989495C8.742485,9.726195,9.285785,9.280325000000001,9.668025,8.708255000000001C10.050275,8.136185000000001,10.254294999999999,7.463605,10.254294999999999,6.7755849999999995C10.254294999999999,5.852975,9.887785000000001,4.968155,9.235405,4.315765C8.583025,3.663381,7.698195,3.296875,6.7755849999999995,3.296875ZM6.7755849999999995,9.033645C6.328984999999999,9.033645,5.892405,8.901215,5.521075,8.653095C5.149735,8.404975,4.860315,8.052315,4.689405,7.639705C4.518495,7.227105,4.4737849999999995,6.773075,4.560905,6.3350550000000005C4.648035,5.897035,4.8630949999999995,5.4946850000000005,5.178895,5.178895C5.4946850000000005,4.8630949999999995,5.897035,4.648035,6.3350550000000005,4.560905C6.773085,4.4737849999999995,7.227105,4.518495,7.639705,4.689405C8.052315,4.860315,8.404975,5.149735,8.653095,5.521075C8.901215,5.892405,9.033655,6.328984999999999,9.033655,6.7755849999999995C9.033655,7.374465,8.795745,7.948805,8.372275,8.372275C7.948805,8.795745,7.374465,9.033645,6.7755849999999995,9.033645C6.7755849999999995,9.033645,6.7755849999999995,9.033645,6.7755849999999995,9.033645Z" fill="#000000" fill-opacity="1"/></g><g><path d="M11.203935,3.158606125Q11.203935,3.238670125,11.188315,3.317196125Q11.172695000000001,3.395723125,11.142055,3.469693125Q11.111415000000001,3.543663125,11.066935,3.6102331249999997Q11.022455,3.676803125,10.965835,3.733413125Q10.909225,3.790033125,10.842655,3.834513125Q10.776085,3.878993125,10.702115,3.909633125Q10.628145,3.940273125,10.549618,3.9558931250000002Q10.471092,3.971513125,10.391028,3.971513125Q10.310964,3.971513125,10.232439,3.9558931250000002Q10.153913,3.940273125,10.079944,3.909633125Q10.005974,3.878993125,9.939403,3.834513125Q9.872833,3.790033125,9.816219,3.733413125Q9.759605,3.676803125,9.715124,3.6102331249999997Q9.6706427,3.543663125,9.6400036,3.469693125Q9.6093644,3.395723125,9.5937447,3.317196125Q9.578125,3.238670125,9.578125,3.158606125Q9.578125,3.0785421250000002,9.5937447,3.000017125Q9.6093644,2.921491125,9.6400036,2.8475221250000002Q9.6706427,2.773552125,9.715124,2.706981125Q9.759605,2.640411125,9.816219,2.583797125Q9.872833,2.527183125,9.939403,2.482702125Q10.005974,2.438220825,10.079944,2.407581725Q10.153913,2.376942525,10.232439,2.361322825Q10.310964,2.345703125,10.391028,2.345703125Q10.471092,2.345703125,10.549618,2.361322825Q10.628145,2.376942525,10.702115,2.407581725Q10.776085,2.438220825,10.842655,2.482702125Q10.909225,2.527183125,10.965835,2.583797125Q11.022455,2.640411125,11.066935,2.706981125Q11.111415000000001,2.773552125,11.142055,2.8475221250000002Q11.172695000000001,2.921491125,11.188315,3.000017125Q11.203935,3.0785421250000002,11.203935,3.158606125Z" fill="#000000" fill-opacity="1"/></g></g></svg>