<svg xmlns="http://www.w3.org/2000/svg" xmlns:xlink="http://www.w3.org/1999/xlink" fill="none" version="1.1" width="195.02418506145477" height="32.219749331474304" viewBox="0 0 195.02418506145477 32.219749331474304"><g><path d="M0.5120925307273865,1.0116215307273864C0.5120925307273865,1.0116215307273864,3.4442625307273866,4.3183525307273865,3.4442625307273866,4.3183525307273865C3.4442625307273866,4.3183525307273865,3.4442625307273866,28.520492530727388,3.4442625307273866,28.520492530727388C3.4442625307273866,28.520492530727388,1.2710665307273865,31.687192530727387,1.2710665307273865,31.687192530727387C1.2710665307273865,31.687192530727387,14.580492530727387,31.707692530727385,14.580492530727387,31.707692530727385C14.580492530727387,31.707692530727385,12.181592530727386,28.793692530727387,12.181592530727386,28.793692530727387C12.181592530727386,28.793692530727387,11.932492530727387,20.077692530727386,11.932492530727387,20.077692530727386C11.932492530727387,20.077692530727386,24.765692530727385,20.147392530727387,24.765692530727385,20.147392530727387C28.655492530727386,18.852392530727386,32.654192530727386,16.091292530727387,32.84629253072739,10.509482530727386C32.78489253072738,5.100192530727386,29.482392530727388,1.6307325307273866,25.648092530727386,0.9404765307273865C25.648092530727386,0.9404765307273865,0.5120925307273865,1.0116215307273864,0.5120925307273865,1.0116215307273864ZM11.456992530727387,2.5594025307273864C11.456992530727387,2.5594025307273864,11.456992530727387,18.107592530727388,11.456992530727387,18.107592530727388C11.456992530727387,18.107592530727388,21.303192530727387,18.178792530727385,21.303192530727387,18.178792530727385C23.543592530727388,16.372092530727386,25.241892530727387,14.988592530727386,25.173992530727386,10.650992530727386C25.141892530727386,7.1141925307273866,24.395292530727385,4.029982530727386,21.099392530727386,2.5601625307273865C21.099392530727386,2.5601625307273865,11.456992530727387,2.5594025307273864,11.456992530727387,2.5594025307273864ZM39.00569253072739,0.8352725307273865C39.00569253072739,0.8352725307273865,41.93789253072739,4.142762530727387,41.93789253072739,4.142762530727387C41.93789253072739,4.142762530727387,41.93789253072739,28.344892530727385,41.93789253072739,28.344892530727385C41.93789253072739,28.344892530727385,39.76469253072739,31.513192530727387,39.76469253072739,31.513192530727387C39.76469253072739,31.513192530727387,53.07339253072739,31.532092530727386,53.07339253072739,31.532092530727386C53.07339253072739,31.532092530727386,50.674492530727385,28.618192530727388,50.674492530727385,28.618192530727388C50.674492530727385,28.618192530727388,50.425392530727386,19.902092530727387,50.425392530727386,19.902092530727387C50.425392530727386,19.902092530727387,50.478692530727386,19.902092530727387,50.478692530727386,19.902092530727387C50.478692530727386,19.902092530727387,64.22859253072738,31.630492530727388,64.22859253072738,31.630492530727388C64.22859253072738,31.630492530727388,75.63949253072738,31.537392530727388,75.63949253072738,31.537392530727388C75.63949253072738,31.537392530727388,65.22499253072739,22.529192530727386,65.22499253072739,22.529192530727386C65.22499253072739,22.529192530727386,56.53079253072739,22.529192530727386,56.53079253072739,22.529192530727386C56.53079253072739,22.529192530727386,53.46639253072739,19.918792530727387,53.46639253072739,19.918792530727387C53.46639253072739,19.918792530727387,63.258592530727384,19.971792530727388,63.258592530727384,19.971792530727388C67.14839253072739,18.676792530727386,71.1462925307274,15.915692530727387,71.33919253072739,10.333882530727386C71.27859253072738,4.925352530727387,67.97599253072738,1.4551425307273864,64.14099253072739,0.7656415307273865C64.14099253072739,0.7656415307273865,39.00569253072739,0.8352725307273865,39.00569253072739,0.8352725307273865ZM49.94989253072739,2.3830525307273867C49.94989253072739,2.3830525307273867,49.94989253072739,17.931292530727386,49.94989253072739,17.931292530727386C49.94989253072739,17.931292530727386,59.796092530727385,18.002392530727388,59.796092530727385,18.002392530727388C62.03719253072739,16.19579253072739,63.73479253072739,14.812192530727387,63.66689253072739,10.473902530727386C63.63479253072739,6.937852530727387,62.88819253072739,3.8528825307273866,59.592292530727384,2.3830525307273867C59.592292530727384,2.3830525307273867,49.94989253072739,2.3830525307273867,49.94989253072739,2.3830525307273867ZM86.62529253072739,0.8004565307273865C86.62529253072739,0.8004565307273865,98.10119253072739,0.8004565307273865,98.10119253072739,0.8004565307273865C98.10119253072739,0.8004565307273865,113.04009253072739,28.520492530727388,113.04009253072739,28.520492530727388C113.6860925307274,30.660892530727388,115.62009253072739,30.396792530727385,116.91009253072738,31.335292530727386C116.91009253072738,31.335292530727386,102.44709253072739,31.335292530727386,102.44709253072739,31.335292530727386C102.44709253072739,31.335292530727386,104.62009253072739,30.655592530727386,104.62009253072739,30.655592530727386C104.62009253072739,30.655592530727386,104.48409253072738,28.591692530727386,104.48409253072738,28.591692530727386C104.48409253072738,28.591692530727386,100.74909253072738,22.610892530727387,100.74909253072738,22.610892530727387C100.74909253072738,22.610892530727387,88.05119253072739,22.682092530727388,88.05119253072739,22.682092530727388C88.05119253072739,22.682092530727388,85.33529253072739,28.451592530727385,85.33529253072739,28.451592530727385C85.24469253072739,29.107792530727387,84.5426925307274,29.605892530727388,85.06349253072739,30.420992530727386C85.06349253072739,30.420992530727386,86.08259253072738,31.405692530727386,86.08259253072738,31.405692530727386C86.08259253072738,31.405692530727386,79.8354925307274,31.264892530727387,79.8354925307274,31.264892530727387C79.8354925307274,31.264892530727387,82.55209253072739,30.420992530727386,82.55209253072739,30.420992530727386C82.55209253072739,30.420992530727386,92.80449253072739,8.821672530727387,92.80449253072739,8.821672530727387C92.80449253072739,8.821672530727387,92.80449253072739,7.343522530727387,92.80449253072739,7.343522530727387C92.80449253072739,7.343522530727387,88.47269253072739,1.5648825307273864,88.47269253072739,1.5648825307273864C88.47269253072739,1.5648825307273864,86.62529253072739,0.8004565307273865,86.62529253072739,0.8004565307273865ZM88.85399253072738,20.707392530727386C88.85399253072738,20.707392530727386,94.12809253072739,10.722192530727387,94.12809253072739,10.722192530727387C94.12809253072739,10.722192530727387,99.61919253072739,20.651392530727385,99.61919253072739,20.651392530727385C99.61919253072739,20.651392530727385,88.85399253072738,20.707392530727386,88.85399253072738,20.707392530727386ZM164.2270925307274,0.8610055307273865C164.2270925307274,0.8610055307273865,175.70209253072738,0.8610055307273865,175.70209253072738,0.8610055307273865C175.70209253072738,0.8610055307273865,190.64109253072738,28.581092530727386,190.64109253072738,28.581092530727386C191.2880925307274,30.721492530727385,193.2210925307274,30.457292530727386,194.5120925307274,31.395792530727388C194.5120925307274,31.395792530727388,180.0480925307274,31.395792530727388,180.0480925307274,31.395792530727388C180.0480925307274,31.395792530727388,182.2210925307274,30.714692530727387,182.2210925307274,30.714692530727387C182.2210925307274,30.714692530727387,182.0850925307274,28.650692530727387,182.0850925307274,28.650692530727387C182.0850925307274,28.650692530727387,178.35109253072739,22.671492530727388,178.35109253072739,22.671492530727388C178.35109253072739,22.671492530727388,165.65309253072738,22.742592530727386,165.65309253072738,22.742592530727386C165.65309253072738,22.742592530727386,162.9370925307274,28.510692530727386,162.9370925307274,28.510692530727386C162.84509253072738,29.168392530727388,162.1440925307274,29.666392530727386,162.66409253072737,30.481492530727387C162.66409253072737,30.481492530727387,163.68309253072738,31.466192530727387,163.68309253072738,31.466192530727387C163.68309253072738,31.466192530727387,157.4370925307274,31.325492530727388,157.4370925307274,31.325492530727388C157.4370925307274,31.325492530727388,160.15409253072738,30.481492530727387,160.15409253072738,30.481492530727387C160.15409253072738,30.481492530727387,170.4060925307274,8.882222530727386,170.4060925307274,8.882222530727386C170.4060925307274,8.882222530727386,170.4060925307274,7.403322530727387,170.4060925307274,7.403322530727387C170.4060925307274,7.403322530727387,166.0740925307274,1.6254325307273865,166.0740925307274,1.6254325307273865C166.0740925307274,1.6254325307273865,164.2270925307274,0.8610055307273865,164.2270925307274,0.8610055307273865ZM166.45609253072737,20.768692530727385C166.45609253072737,20.768692530727385,171.73009253072738,10.783492530727386,171.73009253072738,10.783492530727386C171.73009253072738,10.783492530727386,177.2210925307274,20.711192530727388,177.2210925307274,20.711192530727388C177.2210925307274,20.711192530727388,166.45609253072737,20.768692530727385,166.45609253072737,20.768692530727385ZM120.87909253072739,0.5120925307273865C120.87909253072739,0.5120925307273865,141.3220925307274,0.6248645307273865,141.3220925307274,0.6248645307273865C147.9060925307274,2.1665925307273866,152.09409253072738,6.188552530727386,153.3930925307274,13.204692530727387C153.3930925307274,13.204692530727387,153.33809253072738,18.676792530727386,153.33809253072738,18.676792530727386C152.1380925307274,24.928492530727386,148.2050925307274,29.241792530727388,141.2680925307274,31.425392530727386C141.2680925307274,31.425392530727386,120.77009253072738,31.482892530727387,120.77009253072738,31.482892530727387C120.77009253072738,31.482892530727387,120.76709253072738,30.820592530727385,120.76709253072738,30.820592530727385C123.88409253072739,30.585192530727387,124.13309253072738,30.229492530727388,124.14109253072739,28.379692530727386C124.14109253072739,28.379692530727386,124.14109253072739,3.4449325307273866,124.14109253072739,3.4449325307273866C124.10609253072738,2.0772825307273868,123.83209253072738,1.2258135307273865,120.82409253072738,1.1319625307273866C120.82409253072738,1.1319625307273866,120.87909253072739,0.5120925307273865,120.87909253072739,0.5120925307273865ZM132.5000925307274,2.6456825307273864C132.5000925307274,2.6456825307273864,132.48009253072738,29.623292530727387,132.48009253072738,29.623292530727387C135.17609253072737,29.632392530727387,137.51509253072737,29.885092530727388,138.83709253072738,29.210792530727385C141.83109253072737,27.843092530727386,143.2220925307274,25.742792530727385,143.34909253072738,23.769692530727387C143.34909253072738,23.769692530727387,143.27709253072737,7.840022530727387,143.27709253072737,7.840022530727387C143.27809253072738,5.291672530727387,140.5120925307274,3.4926125307273863,138.91609253072738,3.0241125307273866C137.7740925307274,2.6010325307273865,135.4950925307274,2.5836225307273866,132.5000925307274,2.6456825307273864Z" fill-rule="evenodd" fill="#FFFFFF" fill-opacity="1"/><path d="M120.41109253072739,-0.0025924692726134735L120.3140925307274,1.0868815307273865L120.26709253072738,1.6269025307273866L120.8080925307274,1.6438025307273865Q122.70109253072738,1.7028425307273864,123.25909253072739,2.1949125307273865Q123.60309253072738,2.4984125307273866,123.62909253072739,3.4516525307273866L123.62909253072739,28.377492530727388Q123.62409253072738,29.555592530727388,123.30709253072739,29.800192530727386Q122.85409253072739,30.149392530727386,120.72909253072739,30.309992530727385L120.25309253072739,30.345892530727387L120.26009253072739,31.996392530727388L141.3480925307274,31.937192530727387L141.42209253072738,31.913792530727388Q151.9550925307274,28.598292530727388,153.8410925307274,18.773292530727385L153.85009253072738,18.727992530727388L153.9060925307274,13.160192530727386L153.89709253072738,13.111492530727386Q151.9480925307274,2.5874325307273867,141.43909253072738,0.1262635307273865L141.3830925307274,0.11309853072738646L120.41109253072739,-0.0025924692726134735ZM64.18599253072739,0.25342253072738646L64.13959253072738,0.2535505307273865L37.87019253072739,0.3263235307273865L41.425792530727385,4.337062530727387L41.425792530727385,28.186192530727386L38.79339253072739,32.02389253072739L54.15959253072739,32.045692530727386L51.181392530727386,28.428092530727387L50.96889253072739,20.993292530727388L64.04169253072739,32.14409253072739L77.00149253072739,32.038392530727386L65.41579253072739,22.017092530727385L56.71929253072739,22.017092530727385L54.86619253072739,20.438492530727387L63.340192530727386,20.484292530727387L63.42029253072739,20.457592530727386Q71.59589253072738,17.735892530727387,71.85099253072738,10.351572530727386L71.85139253072738,10.339862530727386L71.85119253072739,10.328142530727387Q71.80559253072738,6.254242530727386,69.55429253072738,3.4589225307273863Q67.44459253072739,0.8392875307273865,64.23159253072738,0.26163053072738646L64.18599253072739,0.25342253072738646ZM88.14719253072738,1.9843825307273866L84.04839253072738,0.28836453072738644L98.4069925307274,0.28836453072738644L113.51509253072739,28.322992530727387L113.53009253072739,28.372492530727385Q113.88609253072738,29.552092530727386,115.64909253072739,30.181792530727385Q116.72209253072738,30.564892530727388,117.21209253072739,30.921092530727385L118.48509253072739,31.847392530727387L99.09379253072738,31.847392530727387L104.08309253072738,30.287192530727385L103.98209253072739,28.753692530727385L100.46629253072739,23.124592530727387L88.37699253072739,23.192392530727385L85.82729253072739,28.608792530727385Q85.76879253072738,28.887792530727385,85.56909253072739,29.297092530727387Q85.32109253072738,29.805792530727388,85.47049253072738,30.102092530727386L87.37989253072739,31.947092530727385L76.68859253072739,31.706192530727385L82.18579253072738,29.998592530727386L92.29239253072738,8.706302530727386L92.29239253072738,7.514162530727386L88.14719253072738,1.9843825307273866ZM88.92359253072739,1.3125495307273864L93.31659253072739,7.1728925307273865L93.31659253072739,8.937042530727387L82.92849253072738,30.822392530727388L84.78529253072739,30.864192530727387L84.66439253072738,30.747392530727385L84.63199253072739,30.696692530727386Q84.13009253072738,29.911192530727387,84.64859253072738,28.848092530727385Q84.80899253072738,28.519292530727387,84.82799253072739,28.381592530727385L84.83869253072739,28.304192530727388L87.72539253072739,22.171792530727387L101.03209253072738,22.097292530727387L104.98709253072738,28.429592530727387L105.14409253072739,30.823192530727386L114.54009253072739,30.823192530727386Q112.99209253072739,30.051392530727387,112.56509253072738,28.719992530727385L97.79549253072739,1.3125495307273864L88.92359253072739,1.3125495307273864ZM165.74909253072738,2.0449325307273867L161.6500925307274,0.3489135307273865L176.0080925307274,0.3489135307273865L191.1160925307274,28.383592530727388L191.1310925307274,28.432992530727386Q191.48809253072739,29.612592530727387,193.2510925307274,30.242292530727386Q194.3230925307274,30.625492530727385,194.81309253072737,30.981692530727386L196.08709253072738,31.907892530727388L176.70209253072738,31.907892530727388L181.68309253072738,30.346492530727385L181.58209253072738,28.812792530727386L178.0680925307274,23.185192530727388L165.9780925307274,23.252892530727387L163.4290925307274,28.667992530727386Q163.3700925307274,28.947192530727385,163.17009253072737,29.356992530727386Q162.92209253072738,29.866292530727385,163.07109253072738,30.162792530727387L164.98109253072738,32.00769253072738L154.29009253072738,31.766792530727386L159.7870925307274,30.059092530727387L169.8940925307274,8.766852530727386L169.8940925307274,7.573972530727387L165.74909253072738,2.0449325307273867ZM166.5250925307274,1.3730985307273866L170.9180925307274,7.2326725307273865L170.9180925307274,8.997592530727387L160.5300925307274,30.882892530727386L162.38609253072738,30.924792530727387L162.26509253072737,30.807892530727386L162.2330925307274,30.756992530727388Q161.73209253072739,29.971592530727385,162.2500925307274,28.908392530727387Q162.41009253072738,28.578792530727387,162.4300925307274,28.440292530727387L162.44009253072738,28.362992530727386L165.32709253072738,22.232392530727388L178.6340925307274,22.157792530727388L182.58809253072738,28.488592530727388L182.7450925307274,30.883692530727387L192.14109253072738,30.883692530727387Q190.59409253072738,30.111892530727385,190.1670925307274,28.780592530727386L175.39609253072737,1.3730985307273866L166.5250925307274,1.3730985307273866ZM25.693092530727387,0.42825423072738644L25.646592530727386,0.4283857307273865L-0.6235674692726134,0.5027409507273864L2.9321625307273864,4.512692530727387L2.9321625307273864,28.361692530727385L0.2995785307273865,32.197792530727384L15.666792530727387,32.221392530727385L12.688492530727386,28.603692530727386L12.459492530727386,20.592692530727387L24.847292530727387,20.659892530727387L24.927392530727385,20.633192530727385Q33.103892530727386,17.911092530727387,33.35809253072738,10.527092530727387L33.35849253072739,10.515392530727386L33.35829253072739,10.503672530727387Q33.312092530727384,6.4294625307273865,31.060892530727386,3.6341325307273866Q28.951392530727386,1.0148105307273865,25.738792530727387,0.4364855307273865L25.693092530727387,0.42825423072738644ZM64.09529253072739,1.2778625307273863L40.141292530727384,1.3442215307273866L42.449992530727386,3.9484525307273866L42.449992530727386,28.503692530727385L40.73599253072739,31.002392530727388L51.98729253072739,31.018392530727386L50.16759253072739,28.808192530727386L49.89849253072739,19.389992530727387L50.66749253072739,19.389992530727387L64.4155925307274,31.116792530727388L74.27759253072739,31.036392530727387L65.03429253072738,23.041292530727386L56.342292530727384,23.041292530727386L52.06669253072739,19.399092530727387L63.176392530727384,19.459192530727385Q70.59139253072739,16.955792530727386,70.82699253072738,10.328112530727386Q70.78229253072739,6.6164925307273865,68.75669253072739,4.101332530727387Q66.90169253072739,1.7980425307273864,64.09529253072739,1.2778625307273863ZM123.28909253072739,1.0374875307273865L141.2620925307274,1.1366295307273866Q151.0440925307274,3.4542725307273865,152.88009253072738,13.249292530727386L152.82709253072738,18.625192530727386Q151.04709253072738,27.778292530727388,141.18909253072738,30.913492530727385L123.16609253072738,30.964092530727388Q123.67209253072738,30.812392530727386,123.9330925307274,30.610892530727387Q124.64609253072739,30.060492530727387,124.65309253072739,28.381992530727388L124.65309253072739,3.4383725307273867L124.65309253072739,3.4318125307273863Q124.61709253072739,2.0265625307273867,123.9360925307274,1.4266355307273866Q123.68009253072739,1.2007055307273866,123.28909253072739,1.0374875307273865ZM25.602392530727386,1.4527005307273866L1.6477525307273864,1.5205025307273865L3.9563525307273864,4.124002530727386L3.9563525307273864,28.679292530727388L2.2425525307273864,31.176592530727387L13.494192530727387,31.193892530727386L11.674692530727386,28.983792530727385L11.405492530727386,19.562792530727386L24.683492530727385,19.634792530727385Q32.099592530727385,17.130992530727386,32.33409253072739,10.503492530727387Q32.28879253072739,6.791682530727386,30.263192530727387,4.2765425307273865Q28.408392530727387,1.9735025307273866,25.602392530727386,1.4527005307273866ZM59.701292530727386,1.8709625307273865L49.437792530727386,1.8709625307273865L49.437792530727386,18.43969253072739L59.975192530727384,18.515792530727385L60.11749253072739,18.401092530727386Q62.285192530727386,16.653592530727387,63.03169253072738,15.458892530727386Q64.2271925307274,13.545592530727387,64.17889253072738,10.465892530727386Q64.11869253072739,3.8409125307273864,59.800792530727385,1.9153625307273865L59.701292530727386,1.8709625307273865ZM21.208392530727387,2.0480725307273864L21.099392530727386,2.0480625307273863L10.944892530727387,2.0472725307273865L10.944892530727387,18.615992530727386L21.482292530727385,18.692192530727386L21.624592530727387,18.577392530727387Q23.792192530727387,16.829492530727386,24.538492530727385,15.635392530727387Q25.734292530727387,13.721992530727386,25.685992530727386,10.642992530727387Q25.625792530727388,4.018032530727386,21.307892530727386,2.0924625307273867L21.208392530727387,2.0480725307273864ZM139.07609253072738,2.5375625307273864Q137.6630925307274,2.026512530727387,132.4890925307274,2.1337025307273865L131.98809253072739,2.1440825307273865L131.9670925307274,30.133592530727388L132.4780925307274,30.135392530727387Q133.0620925307274,30.137292530727386,134.17609253072737,30.163792530727388Q137.90409253072738,30.252492530727388,139.05909253072738,29.672292530727386Q143.6160925307274,27.586992530727386,143.8600925307274,23.802592530727388L143.86109253072738,23.784992530727386L143.78909253072737,7.837722530727387Q143.79009253072738,5.897282530727386,142.0440925307274,4.276782530727386Q140.68209253072737,3.0132125307273863,139.07609253072738,2.5375625307273864ZM59.48089253072739,2.8951425307273864L50.46189253072739,2.8951425307273864L50.46189253072739,17.422892530727385L59.61619253072739,17.488992530727387Q61.531092530727385,15.927692530727386,62.16309253072739,14.916192530727386Q63.19839253072739,13.259292530727386,63.15489253072739,10.481922530727386Q63.10119253072739,4.5869325307273865,59.48089253072739,2.8951425307273864ZM20.987992530727386,3.0722425307273866L11.968992530727386,3.0715325307273864L11.968992530727386,17.599192530727386L21.123192530727387,17.665392530727388Q23.038192530727386,16.103492530727387,23.669892530727388,15.092592530727387Q24.705492530727387,13.435692530727387,24.661992530727385,10.658992530727387Q24.608392530727386,4.764032530727387,20.987992530727386,3.0722425307273866ZM133.01109253072738,3.1485225307273863Q137.5840925307274,3.0768025307273863,138.73809253072739,3.5043025307273865L138.75409253072738,3.5104825307273866L138.77109253072737,3.5155025307273866Q140.1560925307274,3.9216125307273866,141.3470925307274,5.027472530727387Q142.76609253072738,6.343942530727387,142.76509253072737,7.842332530727386L142.83709253072738,23.753892530727388Q142.6220925307274,26.918692530727387,138.62409253072738,28.744992530727387L138.6140925307274,28.749592530727387L138.6040925307274,28.754592530727386Q137.6860925307274,29.222892530727385,134.20009253072737,29.139892530727387Q133.4910925307274,29.123092530727387,132.99209253072738,29.115992530727386L133.01109253072738,3.1485225307273863ZM88.00209253072738,21.223992530727386L99.62179253072739,21.163492530727385L100.48509253072739,21.158992530727385L94.11779253072739,9.645282530727387L88.00209253072738,21.223992530727386ZM165.6040925307274,21.285392530727385L177.22409253072738,21.223292530727388L178.08709253072738,21.218692530727388L171.71909253072738,9.706712530727387L165.6040925307274,21.285392530727385ZM98.75329253072739,20.143792530727385L89.70599253072739,20.190892530727385L94.13849253072739,11.798992530727386L98.75329253072739,20.143792530727385ZM176.35509253072738,20.203792530727387L167.30809253072738,20.252092530727385L171.7400925307274,11.860192530727387L176.35509253072738,20.203792530727387Z" fill-rule="evenodd" fill="#FFFFFF" fill-opacity="1"/></g></svg>