<svg xmlns="http://www.w3.org/2000/svg" xmlns:xlink="http://www.w3.org/1999/xlink" fill="none" version="1.1" width="206.78785705566406" height="33.34809494018555" viewBox="0 0 206.78785705566406 33.34809494018555"><g><path d="M16.6481,30.4522C9.40945,30.4522,3.2308,23.8867,3.2308,16.7254C3.2308,9.59072,9.28013,2.89479,16.5961,2.89479C21.4053,2.89479,24.8682,5.22146,27.6867,8.86674C27.6867,8.86674,31.2281,8.86674,31.2281,8.86674C30.1681,6.95346,29.0308,5.19603,27.2988,3.82545C24.3255,1.42142,20.4735,0,16.6481,0C7.47074,0,0,7.57464,0,16.7C0,25.8508,7.57464,33.3481,16.7,33.3481C20.4227,33.3481,24.068,31.9786,26.9893,29.6774C28.8252,28.204,30.1173,26.2907,31.3586,24.3255C31.3586,24.3255,27.8172,24.3255,27.8172,24.3255C25.0241,27.9708,21.4573,30.4522,16.6481,30.4522ZM53.3574,13.0028C51.1346,10.1334,48.1094,8.32403,44.3613,8.32403C37.64,8.32403,32.108,13.7798,32.108,20.5012C32.108,27.2214,37.6665,32.728,44.3613,32.728C48.2653,32.728,50.9788,31.0988,53.3574,28.1001C53.3574,28.1001,53.3574,32.1842,53.3574,32.1842C53.3574,32.1842,56.2787,32.1842,56.2787,32.1842C56.2787,32.1842,56.2787,8.89216,56.2787,8.89216C56.2787,8.89216,53.3574,8.89216,53.3574,8.89216C53.3574,8.89216,53.3574,13.0028,53.3574,13.0028ZM44.2066,30.0388C39.0614,30.0388,35.0027,25.5668,35.0027,20.5266C35.0027,15.5107,39.036,11.0132,44.2066,11.0132C49.3507,11.0132,53.3574,15.5118,53.3574,20.5266C53.3574,25.5668,49.3242,30.0388,44.2066,30.0388ZM59.8201,32.1842C59.8201,32.1842,62.9492,32.1842,62.9492,32.1842C62.9492,32.1842,62.9492,0.670921,62.9492,0.670921C62.9492,0.670921,59.8201,0.670921,59.8201,0.670921C59.8201,0.670921,59.8201,32.1842,59.8201,32.1842ZM74.7627,28.487C74.7627,28.487,66.8521,8.89216,66.8521,8.89216C66.8521,8.89216,63.7495,8.89216,63.7495,8.89216C63.7495,8.89216,73.2374,32.1842,73.2374,32.1842C73.2374,32.1842,76.3908,32.1842,76.3908,32.1842C76.3908,32.1842,85.8533,8.89216,85.8533,8.89216C85.8533,8.89216,82.8027,8.89216,82.8027,8.89216C82.8027,8.89216,74.7627,28.487,74.7627,28.487ZM87.1454,32.1842C87.1454,32.1842,90.2734,32.1842,90.2734,32.1842C90.2734,32.1842,90.2734,8.89216,90.2734,8.89216C90.2734,8.89216,87.1454,8.89216,87.1454,8.89216C87.1454,8.89216,87.1454,32.1842,87.1454,32.1842ZM87.1454,5.89348C87.1454,5.89348,90.2734,5.89348,90.2734,5.89348C90.2734,5.89348,90.2734,0.670921,90.2734,0.670921C90.2734,0.670921,87.1454,0.670921,87.1454,0.670921C87.1454,0.670921,87.1454,5.89348,87.1454,5.89348ZM103.743,8.32293C100.795,8.32293,98.7014,9.87478,96.7627,11.9428C96.7627,11.9428,96.7627,8.89216,96.7627,8.89216C96.7627,8.89216,93.8668,8.89216,93.8668,8.89216C93.8668,8.89216,93.8668,32.1842,93.8668,32.1842C93.8668,32.1842,96.9428,32.1842,96.9428,32.1842C96.9428,32.1842,96.9428,17.991,96.9428,17.991C96.9174,14.2429,100.019,11.0121,103.794,11.0121C108.523,11.0121,110.902,15.1228,110.902,19.3627C110.902,19.3627,110.902,32.1853,110.902,32.1853C110.902,32.1853,113.797,32.1853,113.797,32.1853C113.797,32.1853,113.797,19.3627,113.797,19.3627C113.798,13.3134,110.257,8.32293,103.743,8.32293ZM142.829,0.670921C142.829,0.670921,128.611,18.7415,128.611,18.7415C128.611,18.7415,128.611,0.670921,128.611,0.670921C128.611,0.670921,125.535,0.670921,125.535,0.670921C125.535,0.670921,125.535,32.1842,125.535,32.1842C125.535,32.1842,128.611,32.1842,128.611,32.1842C128.611,32.1842,128.611,23.5242,128.611,23.5242C128.611,23.5242,132.644,18.5094,132.644,18.5094C132.644,18.5094,142.907,32.1842,142.907,32.1842C142.907,32.1842,146.812,32.1842,146.812,32.1842C146.812,32.1842,134.608,16.0269,134.608,16.0269C134.608,16.0269,146.812,0.670921,146.812,0.670921C146.812,0.670921,142.829,0.670921,142.829,0.670921ZM147.948,32.1842C147.948,32.1842,151,32.1842,151,32.1842C151,32.1842,151,0.670921,151,0.670921C151,0.670921,147.948,0.670921,147.948,0.670921C147.948,0.670921,147.948,32.1842,147.948,32.1842ZM176.256,14.7602C174.136,10.8043,169.896,8.32293,165.423,8.32293C158.755,8.32293,153.118,13.8815,153.118,20.5509C153.118,27.2711,158.806,32.7269,165.477,32.7269C168.655,32.7269,171.785,31.4602,174.084,29.2629C175.481,27.9443,176.308,26.2896,177.056,24.5576C177.056,24.5576,173.775,24.5576,173.775,24.5576C172.119,27.7895,169.198,30.0377,165.422,30.0377C163.123,30.0377,160.874,29.107,159.168,27.5298C157.408,25.9282,156.634,23.9619,156.296,21.6363C156.296,21.6363,177.781,21.6363,177.781,21.6363C177.782,19.2068,177.445,16.8802,176.256,14.7602ZM156.402,18.9482C157.334,14.58,160.771,11.0121,165.477,11.0121C169.432,11.0121,173.672,13.4427,174.603,18.9482C174.603,18.9482,156.402,18.9482,156.402,18.9482ZM180.057,32.1842C180.057,32.1842,183.132,32.1842,183.132,32.1842C183.132,32.1842,183.132,8.89216,183.132,8.89216C183.132,8.89216,180.057,8.89216,180.057,8.89216C180.057,8.89216,180.057,32.1842,180.057,32.1842ZM180.057,5.99738C180.057,5.99738,183.132,5.99738,183.132,5.99738C183.132,5.99738,183.132,0.670921,183.132,0.670921C183.132,0.670921,180.057,0.670921,180.057,0.670921C180.057,0.670921,180.057,5.99738,180.057,5.99738ZM196.654,8.32293C193.654,8.32293,191.56,9.87478,189.595,11.9428C189.595,11.9428,189.595,8.89216,189.595,8.89216C189.595,8.89216,186.648,8.89216,186.648,8.89216C186.648,8.89216,186.648,32.1842,186.648,32.1842C186.648,32.1842,189.751,32.1842,189.751,32.1842C189.751,32.1842,189.751,17.991,189.751,17.991C189.725,14.2175,192.905,11.0121,196.704,11.0121C201.411,11.0121,203.893,15.1228,203.893,19.3627C203.893,19.3627,203.893,32.1853,203.893,32.1853C203.893,32.1853,206.788,32.1853,206.788,32.1853C206.788,32.1853,206.788,19.3627,206.788,19.3627C206.788,13.3134,203.193,8.32293,196.654,8.32293Z" fill-rule="evenodd" fill="#FFFFFF" fill-opacity="1"/></g></svg>