<svg xmlns="http://www.w3.org/2000/svg" xmlns:xlink="http://www.w3.org/1999/xlink" fill="none" version="1.1" width="91" height="37.984291076660156" viewBox="0 0 91 37.984291076660156"><g><path d="M86.3324,36.8604C86.3324,36.8604,72.8501,0.0243821,72.8501,0.0243821C72.8501,0.0243821,72.841,0,72.841,0C72.841,0,72.5749,0,72.5749,0C72.5749,0,69.7985,7.56966,69.7985,7.56966C69.7985,7.56966,64.7441,21.3504,64.7441,21.3504C64.7441,21.3504,64.7323,21.3395,64.7323,21.3395C62.9806,19.8056,60.5091,18.8468,57.3965,18.4897C57.3965,18.4897,56.4472,18.3924,56.4472,18.3924C56.4472,18.3924,57.389,18.2726,57.389,18.2726C62.5219,17.3573,65.9723,14.1403,65.9723,10.2644C65.9723,4.94948,60.9348,1.2397,53.7189,1.2397C53.7189,1.2397,38.7052,1.2397,38.7052,1.2397C38.7052,1.2397,38.7052,1.5088,38.7052,1.5088C38.7052,1.5088,43.0678,1.5088,43.0678,1.5088C43.0678,1.5088,43.0678,28.9721,43.0678,28.9721C43.0678,28.9721,32.4727,0.0242918,32.4727,0.0242918C32.4727,0.0242918,32.4632,0,32.4632,0C32.4632,0,32.1971,0,32.1971,0C32.1971,0,29.4207,7.56966,29.4207,7.56966C29.4207,7.56966,18.7123,36.7655,18.7123,36.7655C18.7123,36.7655,18.6464,36.7731,18.6464,36.7731C18.4634,36.7955,18.2824,36.8133,18.1034,36.8268C17.834,36.8477,17.5662,36.8603,17.2976,36.8603C17.2976,36.8603,6.47765,36.8603,6.47765,36.8603C6.47765,36.8603,27.0448,1.50871,27.0448,1.50871C27.0448,1.50871,27.1977,1.24304,27.1977,1.24304C27.1977,1.24304,2.04322,1.24304,2.04322,1.24304C2.04322,1.24304,2.04322,12.1789,2.04322,12.1789C2.04322,12.1789,2.31013,12.1789,2.31013,12.1789C2.35745,6.85219,5.48348,1.50871,12.3902,1.50871C12.3902,1.50871,20.7226,1.50871,20.7226,1.50871C20.7226,1.50871,0,37.1251,0,37.1251C0,37.1251,27.9173,37.1251,27.9173,37.1251C27.9173,37.1251,27.9173,26.6479,27.9173,26.6479C27.9173,26.6479,27.6504,26.6479,27.6504,26.6479C27.614,31.2906,24.9619,35.7003,19.1947,36.696C19.1947,36.696,19.0114,36.7271,19.0114,36.7271C19.0114,36.7271,23.4036,24.7469,23.4036,24.7469C23.4036,24.7469,35.7075,24.7469,35.7075,24.7469C35.7075,24.7469,40.141,36.8604,40.141,36.8604C40.141,36.8604,35.7675,36.8604,35.7675,36.8604C35.7675,36.8604,35.7675,37.1252,35.7675,37.1252C35.7675,37.1252,52.9333,37.1252,52.9333,37.1252C52.9333,37.1252,52.9333,36.8604,52.9333,36.8604C52.9333,36.8604,48.5411,36.8604,48.5411,36.8604C48.5411,36.8604,48.5411,18.5878,48.5411,18.5878C48.5411,18.5878,53.6091,18.5878,53.6091,18.5878C58.7665,18.5878,61.7245,20.8743,61.7245,24.859C61.7245,24.859,61.7245,28.1003,61.7245,28.1003C61.7245,28.4575,61.749,28.9796,61.776,29.4163C61.776,29.4163,61.776,29.4322,61.776,29.4322C61.776,29.4322,59.052,36.8587,59.052,36.8587C59.052,36.8587,55.4934,36.8587,55.4934,36.8587C55.4934,36.8587,55.4934,37.1235,55.4934,37.1235C55.4934,37.1235,62.8596,37.1235,62.8596,37.1235C62.8596,37.1235,62.8596,36.8587,62.8596,36.8587C62.8596,36.8587,59.3393,36.8587,59.3393,36.8587C59.3393,36.8587,61.8199,30.0961,61.8199,30.0961C61.825,30.1615,61.8276,30.2009,61.8276,30.2009C61.8276,30.2009,61.896,30.8103,61.896,30.8103C61.896,30.8103,61.9619,31.2134,61.9619,31.2134C62.3758,33.707,63.3369,35.5401,64.8177,36.6616C64.8177,36.6616,65.0305,36.815,65.0305,36.815C66.1555,37.5912,67.5535,37.9843,69.1879,37.9843C71.3527,37.9843,72.7962,37.4487,73.988,36.1881C73.988,36.1881,73.8318,36.0422,73.8318,36.0422C72.7337,37.048,71.8122,37.4555,70.6576,37.4555C68.6903,37.4555,67.6608,35.0875,67.6608,32.7523C67.6608,32.7523,67.6608,28.2109,67.6608,28.2109C67.6712,27.0841,67.4934,25.9634,67.1345,24.8942C67.1345,24.8942,67.0856,24.7535,67.0856,24.7535C67.0856,24.7535,67.0856,24.7484,67.0856,24.7484C67.0856,24.7484,76.0851,24.7484,76.0851,24.7484C76.0851,24.7484,80.5186,36.862,80.5186,36.862C80.5186,36.862,76.1452,36.862,76.1452,36.862C76.1452,36.862,76.1452,37.1269,76.1452,37.1269C76.1452,37.1269,91,37.1269,91,37.1269C91,37.1269,91,36.862,91,36.862C91,36.862,86.3324,36.8604,86.3324,36.8604ZM23.5015,24.4819C23.5015,24.4819,29.5627,7.95697,29.5627,7.95697C29.5627,7.95697,35.6104,24.4819,35.6104,24.4819C35.6104,24.4819,23.5015,24.4819,23.5015,24.4819ZM48.5438,18.322C48.5438,18.322,48.5438,1.50871,48.5438,1.50871C48.5438,1.50871,52.4122,1.50871,52.4122,1.50871C57.5798,1.50871,60.308,4.5572,60.308,10.3215C60.308,16.452,58.742,18.322,53.6091,18.322C53.6091,18.322,48.5438,18.322,48.5438,18.322ZM66.9807,24.4819C66.9807,24.4819,66.9545,24.4165,66.9545,24.4165C66.5546,23.4499,65.9723,22.568,65.239,21.8181C65.239,21.8181,64.9856,21.5666,64.9856,21.5666C64.9856,21.5666,64.9586,21.5415,64.9586,21.5415C64.9586,21.5415,69.937,7.95697,69.937,7.95697C69.937,7.95697,75.9846,24.4819,75.9846,24.4819C75.9846,24.4819,66.9807,24.4819,66.9807,24.4819Z" fill="#FFFFFF" fill-opacity="1"/></g></svg>